<?xml version="1.0" encoding="utf-8"?>
<!-- Generator: Adobe Illustrator 26.2.1, SVG Export Plug-In . SVG Version: 6.00 Build 0)  -->
<svg version="1.1" id="Layer_1" xmlns="http://www.w3.org/2000/svg" xmlns:xlink="http://www.w3.org/1999/xlink" x="0px" y="0px" 
	 viewBox="0 0 257.9 85.7" style="enable-background:new 0 0 257.9 85.7;" xml:space="preserve" width="120" height="41">
<style type="text/css">
	.st0{fill:#80C342;}
</style>
<g>
	<polygon class="st0" points="135.2,84.1 153.3,84.1 153.3,50.2 192,50.2 192,33.8 153.3,33.8 153.3,16.4 192.9,16.4 192.9,0 
		135.2,0 	"/>
	<rect x="195.9" y="0" class="st0" width="16.5" height="16.4"/>
	<path class="st0" d="M122.5,30.9c-2.8-2.8-6.1-5.1-10-6.7c-3.9-1.6-8.2-2.4-12.8-2.4c-4.6,0-9,0.8-12.9,2.4
		c-3.9,1.6-7.4,3.9-10.2,6.7c-2.8,2.8-5.1,6.3-6.6,10.2c-1.6,3.9-2.4,8.1-2.4,12.6c0,4.6,0.8,8.9,2.5,12.7c1.7,3.9,3.9,7.3,6.8,10.1
		c2.9,2.8,6.4,5.1,10.3,6.7c4,1.6,8.4,2.4,13.1,2.4c3.2,0,6.4-0.5,9.5-1.4c3.1-0.9,6-2.3,8.6-4c2.6-1.7,5-3.9,7-6.3l0,0
		c2-2.5,3.6-5.3,4.8-8.3l0.5-1.3H112l-0.3,0.4c-1.3,1.7-2.9,2.9-4.8,3.6c-2,0.7-4.2,1.1-6.5,1.1c-3.7,0-6.9-1-9.5-2.9
		c-2.3-1.7-3.9-3.9-4.8-6.7h44.9L131,59c0.2-1,0.3-2,0.3-2.9v-2.7c0-4.4-0.8-8.6-2.3-12.4C127.4,37.2,125.3,33.8,122.5,30.9z
		 M86.3,46.3c0.6-2.6,2.1-4.7,4.4-6.4c2.7-1.9,5.7-2.9,9-2.9c3.4,0,6.4,0.9,8.8,2.8c2.1,1.6,3.5,3.8,4.1,6.5H86.3z"/>
	<path class="st0" d="M64.5,35.1c1.7-3.2,2.5-6.8,2.5-10.6c0-3.3-0.6-6.5-1.7-9.5c-1.2-3-2.9-5.6-5.2-7.8c-2.3-2.2-5.3-3.9-8.8-5.2
		C47.7,0.6,43.5,0,38.7,0H0v16.4h18.1v0h19c3.7,0,6.7,0.8,8.8,2.2c2,1.4,3,3.6,3,6.6c0,2.8-1,4.9-3.1,6.4c-2.1,1.5-5.1,2.3-8.7,2.3
		h-19V17C8.7,19.1,1.5,26.8,0,36.4v47.7h38.7c4.8,0,9-0.6,12.5-1.9c3.5-1.3,6.5-3,8.8-5.2c2.3-2.2,4.1-4.8,5.2-7.8
		c1.2-3,1.7-6.2,1.7-9.5c0-3.9-0.8-7.4-2.5-10.6C63,46.2,61,43.9,58.3,42C61,40.2,63,37.9,64.5,35.1z M45.8,65.5
		c-2.1,1.5-5.1,2.2-8.7,2.2h-19V50.3h19c3.7,0,6.7,0.8,8.8,2.2c2,1.4,3,3.6,3,6.6C48.9,62,47.9,64,45.8,65.5z"/>
	<path class="st0" d="M240.1,23.4V10.2h-17.5v13.2h-9.2h-1.6h-15.9v60.7h17.5V38.9h8.6v0h23.7c0,0,0,0-0.1,0h12.3V23.4H240.1z"/>
	<path class="st0" d="M241.5,66.9c-0.9-1.2-1.4-2.8-1.4-4.7V39.6c-8.7,2.1-15.5,9-17.5,17.8v7.3c0,5.7,2,10.4,5.9,14
		c3.9,3.6,9.7,5.4,17.3,5.4h12.1V68.6h-12C243.8,68.6,242.4,68,241.5,66.9z"/>
</g>
</svg>
