<svg width="115" height="115" viewBox="0 0 115 115" fill="none" xmlns="http://www.w3.org/2000/svg">
<rect width="115" height="115" fill="#80C342"/>
<path d="M90.0405 51.4153C88.4624 49.8373 86.6025 48.541 84.4045 47.6392C82.2065 46.7375 79.783 46.2866 77.1905 46.2866C74.598 46.2866 72.1182 46.7375 69.9201 47.6392C67.7221 48.541 65.7495 49.8373 64.1715 51.4153C62.5934 52.9934 61.2971 54.966 60.4517 57.164C59.55 59.362 59.0991 61.7291 59.0991 64.2653C59.0991 66.8578 59.55 69.2813 60.5081 71.423C61.4662 73.621 62.7061 75.5372 64.3406 77.1153C65.975 78.6933 67.9476 79.9896 70.1456 80.8913C72.4 81.7931 74.8798 82.244 77.5287 82.244C79.3322 82.244 81.1357 81.9622 82.8828 81.4549C84.63 80.9477 86.2644 80.1587 87.7297 79.2006C89.1951 78.2424 90.5477 77.0025 91.6749 75.6499C92.8021 74.2409 93.7038 72.6629 94.3802 70.9721L94.6619 70.2394H84.1227L83.9536 70.4648C83.221 71.4229 82.3192 72.0993 81.2484 72.4938C80.1212 72.8883 78.8813 73.1137 77.585 73.1137C75.4997 73.1137 73.6962 72.5501 72.2309 71.4793C70.9346 70.5212 70.0329 69.2813 69.5256 67.7032H94.831V67.2523C94.9437 66.6888 95.0001 66.1252 95.0001 65.6179V64.0962C95.0001 61.6164 94.5492 59.2493 93.7038 57.1076C92.8021 54.966 91.6185 53.0498 90.0405 51.4153ZM69.6383 60.0947C69.9765 58.6293 70.8219 57.4458 72.1182 56.4877C73.6399 55.4169 75.3306 54.8533 77.1905 54.8533C79.1067 54.8533 80.7975 55.3605 82.1501 56.4313C83.3337 57.3331 84.1227 58.573 84.4609 60.0947H69.6383Z" fill="white"/>
<path d="M57.3519 53.7822C58.31 51.9787 58.7609 49.9497 58.7609 47.8081C58.7609 45.9482 58.4227 44.1447 57.8027 42.4539C57.1264 40.7631 56.1683 39.2978 54.872 38.0579C53.5758 36.818 51.885 35.8599 49.9124 35.1272C47.8835 34.3382 45.5164 34 42.8111 34H21V43.243H31.2011H41.9094C43.9947 43.243 45.6855 43.6938 46.869 44.4829C47.9962 45.2719 48.5598 46.5118 48.5598 48.2026C48.5598 49.7807 47.9962 50.9642 46.8126 51.8096C45.6291 52.655 43.9383 53.1059 41.9094 53.1059H31.2011V43.5811C25.9033 44.7647 21.8454 49.1043 21 54.5149V81.3983H42.8111C45.5164 81.3983 47.8835 81.0602 49.8561 80.3275C51.8286 79.5948 53.5194 78.6367 54.8157 77.3968C56.112 76.1569 57.1264 74.6915 57.7464 73.0008C58.4227 71.31 58.7045 69.5065 58.7045 67.6466C58.7045 65.4486 58.2536 63.476 57.2955 61.6725C56.5065 60.0381 55.3793 58.7418 53.8576 57.671C55.3793 56.6565 56.5065 55.3602 57.3519 53.7822ZM46.8126 70.9155C45.6291 71.7609 43.9383 72.1554 41.9094 72.1554H31.2011V62.3488H41.9094C43.9947 62.3488 45.6855 62.7997 46.869 63.5887C47.9962 64.3778 48.5598 65.6177 48.5598 67.3085C48.5598 68.9429 47.9962 70.0701 46.8126 70.9155Z" fill="white"/>
</svg>
